<svg width="356.83" xmlns="http://www.w3.org/2000/svg" height="377.093" fill="none"><g data-testid="Group"><g data-testid="svg-path"><path d="M149.564 219.564c9.837-35.535 8.982-81.658 20-114 16.103-47.269 42.155-74.908 36.76-78C194.264 20.651 181.56 17 168.5 17c-22.904 0-44.712 11.226-63.866 31.575-7.123 7.567-13.927 16.366-20.188 26.379-2.882 4.61 40.911 57.166 65.118 144.61Z" style="fill: rgb(144, 0, 0); fill-opacity: 1;" class="fills"/><g class="strokes"><g class="inner-stroke-shape"><defs><clipPath id="b"><use href="#a"/></clipPath><path d="M149.564 219.564c9.837-35.535 8.982-81.658 20-114 16.103-47.269 42.155-74.908 36.76-78C194.264 20.651 181.56 17 168.5 17c-22.904 0-44.712 11.226-63.866 31.575-7.123 7.567-13.927 16.366-20.188 26.379-2.882 4.61 40.911 57.166 65.118 144.61Z" id="a" style="fill: none; stroke-width: 12; stroke: rgb(0, 0, 0); stroke-opacity: 1;"/></defs><use href="#a" clip-path="url('#b')"/></g></g></g><g data-testid="svg-path"><path d="M239.885 11.869c-1.759-2.485-4.825-3.57-7.648-2.713-74.708 22.693-117.895 267.757-47.785 365.657.016.052 96.649-57.718 114.114-112.564 13.758-43.207 24.422-133.185-58.681-250.38ZM156.859 30.99" style="fill: rgb(214, 82, 0); fill-opacity: 0.3;" class="fills"/><g class="strokes"><g class="inner-stroke-shape"><defs><clipPath id="d"><use href="#c"/></clipPath><path d="M239.885 11.869c-1.759-2.485-4.825-3.57-7.648-2.713-74.708 22.693-117.895 267.757-47.785 365.657.016.052 96.649-57.718 114.114-112.564 13.758-43.207 24.422-133.185-58.681-250.38ZM156.859 30.99" id="c" style="fill: none; stroke-width: 12; stroke: rgb(0, 0, 0); stroke-opacity: 1;"/></defs><use href="#c" clip-path="url('#d')"/></g></g></g><g data-testid="svg-path"><path d="M26.821 43.349a7.081 7.081 0 0 1 6.771-4.695c45.507.638 92.97 102.184 117.755 179.465 3.498 10.907.065 22.041.217 31.445.252 15.672 2.5 28.625 5 43 5.569 32.023 17 57 28.418 82.19-.001.054-111.801-28.541-144.667-76.121C14.424 261.15-21.749 178.144 26.821 43.349Z" style="fill: rgb(214, 82, 0); fill-opacity: 0.61;" class="fills"/><g class="strokes"><g class="inner-stroke-shape"><defs><clipPath id="f"><use href="#e"/></clipPath><path d="M26.821 43.349a7.081 7.081 0 0 1 6.771-4.695c45.507.638 92.97 102.184 117.755 179.465 3.498 10.907.065 22.041.217 31.445.252 15.672 2.5 28.625 5 43 5.569 32.023 17 57 28.418 82.19-.001.054-111.801-28.541-144.667-76.121C14.424 261.15-21.749 178.144 26.821 43.349Z" id="e" style="fill: none; stroke-width: 12; stroke: rgb(0, 0, 0); stroke-opacity: 1;"/></defs><use href="#e" clip-path="url('#f')"/></g></g></g></g></svg>